<svg xmlns="http://www.w3.org/2000/svg" width="600" height="1010" viewBox="0 0 600 1010" version="1.1"><path d="M 420 2.092 C 415.875 2.511, 410.928 3.336, 409.007 3.927 C 407.085 4.517, 403.260 5.010, 400.507 5.022 C 397.699 5.034, 393.585 5.913, 391.141 7.022 C 388.743 8.110, 385.688 9, 384.351 9 C 383.014 9, 380.156 9.900, 378 11 C 375.844 12.100, 373.499 13.002, 372.790 13.004 C 372.080 13.005, 367.225 15.245, 362 17.980 C 356.775 20.715, 351.114 23.612, 349.420 24.418 C 347.727 25.225, 345.759 26.585, 345.048 27.442 C 344.337 28.299, 343.313 29, 342.772 29 C 342.231 29, 340.543 30.012, 339.020 31.250 C 337.497 32.487, 334.957 34.389, 333.376 35.475 C 318.030 46.015, 285 89.676, 285 99.421 C 285 100.057, 284.162 102.222, 283.137 104.231 C 282.112 106.241, 280.968 109.802, 280.593 112.143 C 280.219 114.485, 279.433 116.978, 278.847 117.684 C 278.261 118.390, 277.373 122.619, 276.874 127.081 C 276.375 131.544, 275.437 136.163, 274.790 137.347 C 272.460 141.612, 272.531 168.408, 274.898 178.137 C 276.054 182.887, 277.003 188.512, 277.006 190.637 C 277.010 192.762, 277.689 195.797, 278.516 197.382 C 279.342 198.968, 280.301 202.031, 280.646 204.189 C 280.991 206.348, 282.112 209.759, 283.137 211.769 C 284.162 213.778, 285 216.026, 285 216.763 C 285 217.918, 287.281 222.856, 290.189 228 C 290.656 228.825, 291.592 230.625, 292.269 232 C 298.375 244.398, 318.221 268.092, 331.037 278.284 C 336.913 282.957, 348.912 291, 350.007 291 C 350.475 291, 351.452 291.574, 352.179 292.276 C 353.366 293.423, 366.063 299.800, 378 305.244 C 380.475 306.373, 383.288 307.680, 384.250 308.148 C 385.212 308.617, 386.788 309.383, 387.750 309.852 C 389.930 310.913, 397.663 314.440, 401 315.895 C 402.375 316.495, 404.175 317.406, 405 317.921 C 405.825 318.435, 407.175 319.135, 408 319.476 C 410.644 320.568, 424.628 329.513, 429.500 333.229 C 460.472 356.848, 480.152 380.176, 495.953 412 C 498.821 417.775, 501.804 423.694, 502.583 425.154 C 503.363 426.614, 504 428.545, 504 429.444 C 504 430.344, 504.839 432.749, 505.865 434.790 C 506.890 436.830, 508.053 440.277, 508.447 442.449 C 508.842 444.621, 509.803 447.308, 510.583 448.421 C 511.362 449.534, 512.020 452.032, 512.044 453.973 C 512.068 455.913, 512.792 459.300, 513.653 461.500 C 514.514 463.700, 515.605 469.775, 516.077 475 C 516.549 480.225, 517.489 487.425, 518.165 491 C 519.746 499.362, 519.775 518.976, 518.216 525.784 C 517.551 528.691, 516.739 534.991, 516.411 539.784 C 516.084 544.578, 514.957 551.089, 513.908 554.254 C 512.859 557.419, 512 561.481, 512 563.281 C 512 565.082, 511.362 567.466, 510.583 568.579 C 509.803 569.692, 508.837 572.379, 508.436 574.551 C 508.035 576.723, 506.873 580.068, 505.853 581.985 C 504.834 583.902, 504.001 586.152, 504.003 586.985 C 504.005 588.319, 501.262 594.703, 498.841 599 C 498.376 599.825, 497.547 601.625, 496.998 603 C 496.450 604.375, 495.545 606.175, 494.988 607 C 494.431 607.825, 493.065 610.300, 491.953 612.500 C 488.775 618.789, 476.692 637.563, 474.576 639.500 C 473.975 640.050, 471.088 643.425, 468.161 647 C 455.290 662.719, 431.690 683.369, 417.369 691.443 C 415.791 692.333, 413.150 693.921, 411.500 694.972 C 406.656 698.058, 396.783 703, 395.463 703 C 394.793 703, 393.709 703.646, 393.053 704.436 C 392.398 705.225, 390.430 706.174, 388.681 706.544 C 386.931 706.913, 384.097 708.067, 382.382 709.108 C 380.667 710.149, 378.512 711, 377.592 711 C 376.673 711, 374.156 711.900, 372 713 C 369.844 714.100, 366.919 715, 365.500 715 C 364.081 715, 361.156 715.900, 359 717 C 356.844 718.100, 353.374 719.006, 351.290 719.013 C 349.205 719.020, 344.575 719.982, 341 721.150 C 331.072 724.394, 271.893 724.373, 262.120 721.122 C 258.611 719.955, 254.111 718.990, 252.120 718.978 C 250.129 718.966, 246.538 718.066, 244.141 716.978 C 241.743 715.890, 238.688 715, 237.351 715 C 236.014 715, 233.156 714.100, 231 713 C 228.844 711.900, 226.363 711, 225.488 711 C 224.613 711, 222.232 710.159, 220.198 709.131 C 214.206 706.103, 207.658 703.197, 205.340 702.537 C 204.152 702.199, 202.635 701.265, 201.968 700.461 C 201.301 699.658, 200.166 699, 199.447 699 C 198.727 699, 196.645 698.057, 194.819 696.904 C 184.441 690.350, 172.226 682.333, 170.960 681.242 C 170.157 680.551, 166.575 677.706, 163 674.920 C 150.086 664.858, 125.527 637.450, 119.959 626.887 C 119.267 625.574, 118.406 624.275, 118.045 624 C 117.198 623.353, 109.192 608.967, 106.081 602.500 C 104.758 599.750, 102.848 595.864, 101.838 593.864 C 100.827 591.864, 100 589.332, 100 588.236 C 100 587.141, 99.337 585.695, 98.526 585.022 C 97.716 584.349, 96.795 582.157, 96.480 580.150 C 96.165 578.142, 95.243 575.150, 94.432 573.500 C 93.621 571.850, 92.554 568.250, 92.062 565.500 C 91.569 562.750, 90.474 558.700, 89.627 556.500 C 88.781 554.300, 88.068 550.219, 88.044 547.432 C 88.020 544.644, 87.223 539.919, 86.274 536.932 C 83.741 528.961, 83.734 488.315, 86.265 479.356 C 87.219 475.976, 88.020 471.251, 88.044 468.856 C 88.068 466.460, 88.784 462.700, 89.634 460.500 C 90.484 458.300, 91.548 454.161, 91.997 451.302 C 92.446 448.444, 93.530 445.081, 94.407 443.830 C 95.283 442.579, 96 440.512, 96 439.238 C 96 437.963, 96.900 435.156, 98 433 C 99.100 430.844, 100 428.479, 100 427.744 C 100 427.010, 102.945 420.579, 106.544 413.454 C 114.331 398.039, 114.716 394.634, 109 391.718 C 107.075 390.736, 103.700 388.854, 101.500 387.535 C 99.300 386.216, 96.150 384.428, 94.500 383.562 C 92.850 382.695, 89.700 380.895, 87.500 379.562 C 85.300 378.228, 82.150 376.428, 80.500 375.562 C 78.850 374.695, 75.700 372.895, 73.500 371.562 C 71.300 370.228, 68.150 368.428, 66.500 367.562 C 64.850 366.695, 61.700 364.901, 59.500 363.575 C 45.719 355.269, 43.077 356.685, 34.440 377 C 33.621 378.925, 32.510 381.175, 31.969 382 C 31.429 382.825, 30.708 384.175, 30.367 385 C 30.026 385.825, 28.678 388.835, 27.373 391.688 C 26.068 394.542, 25 397.479, 25 398.216 C 25 398.952, 24.382 400.443, 23.628 401.527 C 22.873 402.612, 21.929 405.075, 21.530 407 C 21.130 408.925, 20.183 411.481, 19.425 412.680 C 18.667 413.878, 17.740 416.803, 17.367 419.180 C 16.993 421.556, 16.118 424.400, 15.421 425.500 C 14.725 426.600, 13.837 429.750, 13.448 432.500 C 13.059 435.250, 12.142 438.679, 11.411 440.121 C 10.680 441.562, 9.801 445.837, 9.458 449.621 C 9.114 453.404, 8.208 458.166, 7.443 460.203 C 3.463 470.809, 3.483 546.247, 7.469 556.853 C 8.223 558.859, 9.133 563.396, 9.491 566.936 C 9.849 570.477, 10.723 574.527, 11.435 575.936 C 12.146 577.346, 13.041 580.975, 13.424 584 C 13.806 587.025, 14.711 590.410, 15.433 591.522 C 16.156 592.634, 17.086 595.549, 17.500 598 C 17.914 600.451, 18.827 603.366, 19.528 604.478 C 20.230 605.590, 21.099 607.919, 21.460 609.652 C 21.821 611.386, 22.990 614.519, 24.058 616.614 C 25.126 618.709, 26 621.173, 26 622.089 C 26 623.005, 26.675 624.315, 27.500 625 C 28.325 625.685, 29 626.916, 29 627.736 C 29 628.557, 29.892 630.864, 30.983 632.864 C 32.073 634.864, 33.438 637.625, 34.015 639 C 36.361 644.585, 49.636 667.720, 51.701 669.821 C 52.416 670.548, 53 671.507, 53 671.951 C 53 672.396, 54.912 675.251, 57.250 678.296 C 59.587 681.342, 62.400 685.078, 63.500 686.599 C 75.865 703.700, 97.453 725.629, 117.500 741.455 C 127.300 749.191, 146.088 762, 147.635 762 C 148.166 762, 149.159 762.559, 149.843 763.243 C 151.149 764.549, 162.718 771.196, 167 773.101 C 168.375 773.713, 170.175 774.618, 171 775.113 C 171.825 775.608, 173.175 776.292, 174 776.633 C 174.825 776.974, 177.835 778.322, 180.688 779.627 C 183.542 780.932, 186.343 782, 186.914 782 C 187.485 782, 189.425 782.898, 191.226 783.996 C 193.027 785.094, 195.289 785.994, 196.254 785.996 C 197.218 785.998, 199.686 786.900, 201.739 788 C 203.791 789.100, 206.614 790, 208.013 790 C 209.411 790, 211.525 790.679, 212.711 791.510 C 213.896 792.340, 217.034 793.294, 219.683 793.630 C 222.332 793.965, 225.486 794.853, 226.691 795.604 C 227.896 796.355, 231.496 797.239, 234.691 797.569 C 237.886 797.900, 242.242 798.825, 244.372 799.626 C 246.502 800.426, 251.902 801.329, 256.372 801.631 C 260.842 801.934, 267.744 802.816, 271.708 803.591 C 280.283 805.267, 323.242 805.525, 329.500 803.938 C 331.700 803.380, 338.154 802.513, 343.842 802.011 C 349.529 801.510, 356.279 800.441, 358.842 799.636 C 361.404 798.830, 365.933 797.883, 368.906 797.531 C 371.880 797.178, 375.480 796.302, 376.906 795.584 C 378.333 794.866, 381.460 793.978, 383.855 793.610 C 386.250 793.243, 389.490 792.281, 391.055 791.471 C 392.620 790.662, 394.728 790, 395.739 790 C 396.750 790, 399.342 789.100, 401.500 788 C 403.658 786.900, 406.066 786, 406.852 786 C 407.638 786, 410.355 785.051, 412.890 783.891 C 415.426 782.732, 419.300 780.971, 421.500 779.979 C 426.968 777.514, 438.167 772.122, 440 771.072 C 440.825 770.600, 442.625 769.719, 444 769.114 C 446.838 767.866, 448.244 767.028, 456.126 761.885 C 459.220 759.866, 462.666 757.923, 463.783 757.569 C 464.901 757.214, 466.068 756.266, 466.376 755.462 C 466.685 754.658, 467.557 754, 468.314 754 C 469.071 754, 470.505 753.100, 471.500 752 C 472.495 750.900, 473.712 750, 474.204 750 C 478.343 750, 518.987 712.706, 530.875 698 C 533.765 694.425, 537.300 690.042, 538.731 688.259 C 540.997 685.436, 552.293 668.902, 555.697 663.425 C 562.587 652.338, 572.095 633.807, 576.951 622 C 578.195 618.975, 580.065 614.575, 581.106 612.223 C 582.148 609.871, 583 607.164, 583 606.208 C 583 605.253, 583.900 602.791, 585 600.739 C 586.100 598.686, 587.015 595.768, 587.034 594.254 C 587.053 592.739, 587.937 589.700, 589 587.500 C 590.063 585.300, 590.947 581.829, 590.966 579.787 C 590.985 577.745, 591.900 573.791, 593 571 C 594.107 568.191, 595 563.568, 595 560.644 C 595 557.740, 595.788 552.919, 596.750 549.932 C 598.285 545.166, 598.500 540.026, 598.500 508 C 598.500 475.974, 598.285 470.834, 596.750 466.068 C 595.788 463.081, 595 458.457, 595 455.794 C 595 453.130, 594.100 448.389, 593 445.260 C 591.900 442.130, 590.990 438.204, 590.978 436.535 C 590.966 434.866, 590.066 431.538, 588.978 429.141 C 587.890 426.743, 587 423.688, 587 422.351 C 587 421.014, 586.100 418.156, 585 416 C 583.900 413.844, 582.997 411.049, 582.993 409.790 C 582.990 408.530, 582.093 406.150, 581 404.500 C 579.907 402.850, 579.010 400.689, 579.007 399.698 C 579.003 398.707, 578.155 396.232, 577.122 394.198 C 576.089 392.164, 574.222 388.250, 572.974 385.500 C 571.726 382.750, 570.318 379.825, 569.845 379 C 569.372 378.175, 568.491 376.375, 567.886 375 C 567.281 373.625, 566.379 371.825, 565.881 371 C 565.382 370.175, 564.078 367.700, 562.982 365.500 C 561.886 363.300, 560.106 360.150, 559.025 358.500 C 557.945 356.850, 556.361 354.264, 555.507 352.754 C 551.416 345.525, 541.159 331.280, 531.204 319 C 520.833 306.207, 493.805 280.870, 479.500 270.530 C 478.400 269.735, 476.085 267.941, 474.356 266.542 C 472.626 265.144, 470.934 264, 470.595 264 C 470.257 264, 467.814 262.478, 465.167 260.617 C 462.520 258.757, 459.037 256.493, 457.427 255.587 C 455.817 254.681, 453.150 253.076, 451.500 252.021 C 448.427 250.055, 438.632 245.132, 431.500 241.967 C 429.300 240.991, 425.426 239.249, 422.890 238.096 C 420.355 236.943, 417.725 236, 417.045 236 C 416.365 236, 414.614 235.368, 413.154 234.594 C 411.694 233.821, 407.800 231.971, 404.500 230.483 C 401.200 228.995, 397.825 227.382, 397 226.899 C 396.175 226.416, 393.925 225.112, 392 224 C 385.965 220.515, 384.826 219.650, 378.385 213.651 C 370.149 205.980, 359 189.013, 359 184.149 C 359 183.478, 358.212 181.728, 357.250 180.259 C 355.734 177.945, 355.500 174.971, 355.500 158 C 355.500 141.029, 355.734 138.055, 357.250 135.741 C 358.212 134.272, 359.014 132.492, 359.031 131.785 C 359.071 130.144, 363.755 120.812, 367.411 115.089 C 370.344 110.497, 383.447 97, 384.972 97 C 385.453 97, 387.119 95.937, 388.673 94.637 C 390.228 93.337, 392.625 91.934, 394 91.519 C 395.375 91.103, 397.175 90.192, 398 89.493 C 398.825 88.794, 401.068 87.888, 402.985 87.480 C 404.902 87.072, 407.583 86.009, 408.942 85.119 C 413.217 82.318, 448.154 82.850, 453.485 85.797 C 455.677 87.009, 458.016 88, 458.682 88 C 469.070 88, 496.302 114.714, 500.478 129 C 500.879 130.375, 501.768 132.400, 502.451 133.500 C 503.135 134.600, 504.290 140.538, 505.017 146.695 C 507.111 164.414, 505.128 172.283, 495.771 183.380 C 490.497 189.636, 489.659 191.675, 491.361 194.105 C 494.629 198.771, 543.286 247, 544.726 247 C 547.228 247, 563.385 229.561, 567.280 222.655 C 568.259 220.920, 569.920 218.150, 570.971 216.500 C 573.801 212.059, 579 201.828, 579 200.700 C 579 200.160, 579.847 197.870, 580.883 195.610 C 581.918 193.349, 583.309 188.800, 583.973 185.500 C 584.637 182.200, 585.570 177.700, 586.047 175.500 C 587.638 168.153, 587.176 141.053, 585.347 134.460 C 584.438 131.182, 583.421 125.800, 583.088 122.500 C 582.756 119.200, 581.700 115.387, 580.742 114.027 C 579.784 112.668, 579 110.542, 579 109.304 C 579 102.437, 564.829 76.481, 552.628 61 C 544.024 50.084, 521.213 29, 518.006 29 C 517.531 29, 516.527 28.384, 515.774 27.631 C 514.325 26.182, 503.221 19.754, 499 17.920 C 497.625 17.323, 494.836 15.972, 492.802 14.917 C 490.768 13.863, 488.293 12.997, 487.302 12.993 C 486.311 12.990, 484.150 12.093, 482.500 11 C 480.850 9.907, 478.150 9.007, 476.500 9 C 474.850 8.993, 472.150 8.277, 470.500 7.407 C 468.850 6.538, 463.450 5.435, 458.500 4.956 C 453.550 4.477, 448.150 3.654, 446.500 3.126 C 442.155 1.736, 428.684 1.211, 420 2.092 M 402.783 128.683 C 399.962 129.424, 398.599 183.940, 401.333 186.668 C 402.986 188.318, 457.959 187.681, 459.021 186 C 460.797 183.191, 460.253 131.396, 458.429 129.571 C 456.914 128.056, 408.134 127.278, 402.783 128.683 M 229.876 193.634 C 223.292 200.607, 222.953 200.988, 216.622 208.513 C 207.831 218.963, 201.680 226.159, 200 227.961 C 199.175 228.846, 196.028 232.479, 193.006 236.035 C 189.985 239.591, 187.261 242.725, 186.953 243 C 186.646 243.275, 184.012 246.388, 181.100 249.918 C 178.189 253.448, 175.287 256.862, 174.653 257.505 C 172.481 259.705, 162.174 271.497, 158.336 276.173 C 156.226 278.744, 150.285 285.719, 145.134 291.673 C 139.982 297.628, 133.457 305.181, 130.634 308.457 C 127.810 311.734, 124.825 315.111, 124 315.962 C 123.175 316.813, 119.138 321.557, 115.028 326.505 C 110.919 331.452, 107.094 335.989, 106.528 336.587 C 105.963 337.184, 102.800 340.736, 99.500 344.480 C 96.200 348.224, 93.044 351.785, 92.487 352.394 C 89.261 355.917, 87.896 359.170, 89.056 360.567 C 90.609 362.438, 94.422 362.402, 96 360.500 C 96.685 359.675, 98.029 359, 98.988 359 C 99.946 359, 101.874 358.100, 103.273 357 C 104.671 355.900, 106.194 355.008, 106.658 355.018 C 107.437 355.035, 130.611 343.899, 134 341.879 C 134.825 341.388, 136.625 340.490, 138 339.885 C 139.375 339.280, 141.400 338.313, 142.500 337.736 C 144.797 336.532, 147.725 335.061, 150.250 333.844 C 151.213 333.380, 152.787 332.598, 153.750 332.106 C 154.713 331.614, 164.950 326.616, 176.500 321 C 196.859 311.100, 199.022 310.036, 202.750 308.084 C 203.713 307.580, 213.950 302.587, 225.500 296.988 C 237.050 291.390, 247.175 286.399, 248 285.897 C 248.825 285.396, 250.625 284.490, 252 283.885 C 253.375 283.280, 255.400 282.313, 256.500 281.736 C 259.406 280.213, 261.183 279.355, 264 278.115 C 265.375 277.510, 267.175 276.621, 268 276.139 C 272.661 273.419, 286.363 267, 287.509 267 C 289.216 267, 293.002 262.249, 292.995 260.115 C 292.992 259.227, 286.354 250.062, 278.245 239.748 C 270.135 229.435, 257.878 213.798, 251.006 204.998 C 236.736 186.725, 236.513 186.605, 229.876 193.634" stroke="none" fill="#ec041c" fill-rule="evenodd"/><path d="M 76.411 866.500 C 77.011 868.893, 76.843 869, 72.475 869 C 68.684 869, 67.962 869.296, 68.206 870.750 C 68.402 871.918, 67.752 872.606, 66.250 872.820 C 64.425 873.079, 64 873.776, 64 876.511 C 64 879.873, 62.525 882.074, 61.776 879.829 C 60.159 874.977, 59 881.518, 59 895.500 C 59 909.482, 60.159 916.023, 61.776 911.171 C 62.580 908.761, 64 911.245, 64 915.059 C 64 918.333, 64.338 919, 66 919 C 67.111 919, 68 919.667, 68 920.500 C 68 921.519, 69.042 922.010, 71.250 922.032 C 74.937 922.068, 77.881 923.891, 77.254 925.750 C 76.938 926.689, 79.153 927.008, 86.167 927.032 C 94.143 927.059, 95.246 927.257, 93.750 928.392 C 90.886 930.566, 91.668 931, 98.450 931 C 102.903 931, 105.148 931.430, 105.700 932.389 C 106.140 933.152, 107.400 933.947, 108.500 934.155 C 109.600 934.363, 110.506 935.281, 110.513 936.196 C 110.520 937.110, 110.857 938.191, 111.263 938.596 C 111.668 939.002, 112 940.158, 112 941.167 C 112 942.333, 112.727 943, 114 943 C 115.111 943, 116 943.667, 116 944.500 C 116 945.325, 116.675 946, 117.500 946 C 118.746 946, 119 947.944, 119 957.500 C 119 967.056, 118.746 969, 117.500 969 C 116.675 969, 116 969.675, 116 970.500 C 116 971.333, 115.111 972, 114 972 C 112.667 972, 112 972.667, 112 974 C 112 975.313, 111.333 976, 110.059 976 C 107.506 976, 106.524 977.721, 108.036 979.544 C 109.061 980.779, 108.618 981, 105.122 981 C 102.125 981, 101 981.409, 101 982.500 C 101 984.609, 82.510 984.713, 81.300 982.611 C 80.860 981.848, 79.601 981.054, 78.502 980.848 C 77.306 980.624, 76.503 979.680, 76.502 978.499 C 76.501 977.093, 75.637 976.370, 73.500 975.985 C 71.144 975.561, 70.876 975.297, 72.250 974.754 C 74.391 973.909, 74.564 972, 72.500 972 C 68.389 972, 67.077 968.518, 66.783 956.826 C 66.504 945.763, 66.461 945.577, 64.003 944.999 C 62.393 944.620, 61.505 943.716, 61.503 942.456 C 61.500 940.639, 60.753 940.500, 51 940.500 L 40.500 940.500 40.190 944.250 C 39.897 947.782, 38 949.731, 38 946.500 C 38 945.675, 37.325 945, 36.500 945 C 35.258 945, 35 946.889, 35 956 C 35 965.111, 35.258 967, 36.500 967 C 37.333 967, 38 966.111, 38 965 C 38 963.900, 38.450 963, 39 963 C 39.583 963, 40 966.333, 40 971 C 40 978.333, 40.167 979, 42 979 C 43.622 979, 44 979.667, 44 982.531 C 44 984.748, 44.559 986.277, 45.500 986.638 C 46.426 986.994, 47 988.513, 47 990.607 C 47 993.560, 47.325 994, 49.500 994 C 51.500 994, 52 994.500, 52 996.500 C 52 998.717, 52.425 999.003, 55.750 999.030 C 58.783 999.055, 59.165 999.256, 57.750 1000.080 C 54.733 1001.837, 55.828 1003, 60.500 1003 C 63.833 1003, 65 1003.389, 65 1004.500 C 65 1005.583, 66.111 1006, 69 1006 C 72.333 1006, 73 1006.333, 73 1008 C 73 1009.923, 73.667 1010, 90.259 1010 C 106.436 1010, 107.597 1009.875, 108.768 1008 C 109.630 1006.620, 111.100 1006, 113.508 1006 C 115.945 1006, 117 1005.547, 117 1004.500 C 117 1003.383, 118.180 1003, 121.617 1003 C 125.741 1003, 126.177 1002.787, 125.710 1001 C 125.322 999.517, 125.680 999, 127.094 999 C 128.460 999, 129 998.292, 129 996.500 C 129 994.500, 129.500 994, 131.500 994 C 133.056 994, 134 993.433, 134 992.500 C 134 991.667, 134.889 991, 136 991 C 137.333 991, 138 990.333, 138 989 C 138 987.889, 138.667 987, 139.500 987 C 140.583 987, 141 985.889, 141 983 C 141 979.400, 141.250 979, 143.500 979 L 146 979 146 957.500 L 146 936 143.500 936 C 141.325 936, 141 935.560, 141 932.607 C 141 930.513, 140.426 928.994, 139.500 928.638 C 138.675 928.322, 138 927.149, 138 926.031 C 138 924.667, 137.344 924, 136 924 C 134.117 924, 133.434 922.140, 133.911 918.312 C 133.997 917.624, 132.468 916.993, 130.280 916.812 C 127.237 916.561, 126.438 916.061, 126.180 914.250 C 125.932 912.501, 125.208 912, 122.930 912 C 120.992 912, 120 911.492, 120 910.500 C 120 909.367, 118.778 909, 115 909 C 112.250 909, 110 908.550, 110 908 C 110 907.444, 112.678 907, 116.034 907 L 122.068 907 121.784 896.250 C 121.510 885.879, 121.419 885.488, 119.192 885.173 C 117.288 884.903, 117.097 884.589, 118.099 883.380 C 119.020 882.271, 119.034 881.634, 118.158 880.758 C 117.521 880.121, 117 878.790, 117 877.800 C 117 876.810, 116.325 876, 115.500 876 C 114.675 876, 114 875.325, 114 874.500 C 114 873.667, 113.111 873, 112 873 C 110.667 873, 110 872.333, 110 871 C 110 869.387, 109.333 869, 106.559 869 C 104.666 869, 102.840 868.550, 102.500 868 C 102.160 867.450, 102.584 867, 103.441 867 C 104.298 867, 105 866.325, 105 865.500 C 105 864.235, 102.710 864, 90.392 864 L 75.783 864 76.411 866.500 M 531.411 866.500 C 532.011 868.893, 531.843 869, 527.475 869 C 523.684 869, 522.962 869.296, 523.206 870.750 C 523.402 871.918, 522.752 872.606, 521.252 872.819 C 519.026 873.135, 517.547 876.139, 518.188 879.041 C 518.370 879.864, 517.563 880.596, 516.250 880.796 C 512.763 881.328, 512.705 909.672, 516.190 910.180 C 518.012 910.446, 518.389 911.171, 518.440 914.500 C 518.498 918.388, 518.605 918.509, 522.250 918.810 C 524.608 919.005, 526 919.629, 526 920.491 C 526 921.244, 527.013 922.005, 528.250 922.180 C 529.487 922.356, 530.944 923.513, 531.487 924.750 C 532.409 926.850, 533.090 927, 541.737 927 C 547.246 927, 551 927.405, 551 928 C 551 928.550, 550.663 928.947, 550.250 928.882 C 548.417 928.592, 547 929.080, 547 930 C 547 930.562, 549.798 931, 553.393 931 C 558.153 931, 559.933 931.383, 560.362 932.500 C 560.678 933.325, 562.045 934, 563.399 934 C 565.191 934, 565.948 934.613, 566.180 936.250 C 566.386 937.696, 567.304 938.614, 568.750 938.820 C 570.875 939.121, 572.033 941, 570.094 941 C 569.596 941, 569.708 942.121, 570.344 943.492 C 570.980 944.863, 572.063 945.988, 572.750 945.992 C 573.677 945.998, 574 948.971, 574 957.500 C 574 967.056, 573.746 969, 572.500 969 C 571.675 969, 571 969.644, 571 970.430 C 571 971.217, 569.987 972.005, 568.750 972.180 C 567.292 972.388, 566.598 973.090, 566.777 974.177 C 566.957 975.268, 566.258 975.968, 564.777 976.180 C 563.089 976.422, 562.562 977.088, 562.738 978.753 C 562.946 980.710, 562.512 981, 559.381 981 C 556.596 981, 555.916 981.338, 556.362 982.500 C 556.851 983.774, 555.363 984, 546.469 984 C 537.830 984, 536 983.738, 536 982.500 C 536 981.675, 535.127 981, 534.059 981 C 532.991 981, 531.840 980.550, 531.500 980 C 531.160 979.450, 531.359 979, 531.941 979 C 533.963 979, 532.986 976.945, 530.519 976.007 C 528.870 975.380, 528.235 974.550, 528.626 973.532 C 529.061 972.397, 528.538 972, 526.607 972 C 524.956 972, 524 971.450, 524 970.500 C 524 969.675, 523.325 969, 522.500 969 C 521.250 969, 521 967.008, 521 957.070 C 521 945.459, 520.940 945.131, 518.750 944.820 C 517.273 944.610, 516.500 943.813, 516.500 942.500 C 516.500 940.627, 515.833 940.500, 506 940.500 L 495.500 940.500 495.228 959.750 C 494.964 978.491, 495.010 979, 496.978 979 C 498.626 979, 499 979.654, 499 982.531 C 499 984.748, 499.559 986.277, 500.500 986.638 C 501.426 986.994, 502 988.513, 502 990.607 C 502 992.956, 502.461 994, 503.500 994 C 504.325 994, 505 993.298, 505 992.441 C 505 991.584, 505.450 991.160, 506 991.500 C 506.550 991.840, 507 993.639, 507 995.499 C 507 998.683, 507.217 998.897, 510.750 999.190 C 513.677 999.432, 514.436 999.884, 514.206 1001.250 C 513.980 1002.598, 514.612 1003, 516.956 1003 C 518.995 1003, 520 1003.495, 520 1004.500 C 520 1005.547, 521.055 1006, 523.492 1006 C 525.900 1006, 527.370 1006.620, 528.232 1008 C 530.044 1010.901, 565.279 1011.142, 564.794 1008.250 C 564.554 1006.821, 565.371 1006.444, 569.250 1006.195 C 572.585 1005.981, 574 1005.460, 574 1004.445 C 574 1003.455, 575.123 1003, 577.567 1003 C 580.680 1003, 581.054 1002.745, 580.500 1001 C 580.003 999.433, 580.320 999, 581.965 999 C 583.120 999, 584.387 998.212, 584.782 997.250 C 585.177 996.288, 586.175 995.500, 587 995.500 C 587.825 995.500, 588.644 994.487, 588.820 993.250 C 589.032 991.757, 589.825 991, 591.177 991 C 592.629 991, 593.039 990.543, 592.603 989.407 C 592.195 988.345, 592.659 987.640, 593.996 987.291 C 595.567 986.880, 596 985.928, 596 982.883 C 596 979.667, 596.343 979, 598 979 C 599.938 979, 600 978.333, 600 957.500 C 600 936.667, 599.938 936, 598 936 C 596.393 936, 596 935.333, 596 932.607 C 596 930.513, 595.426 928.994, 594.500 928.638 C 593.551 928.274, 593 926.740, 593 924.464 C 593 921.320, 592.747 920.945, 591 921.500 C 589.050 922.119, 588.529 921.302, 588.925 918.250 C 589.028 917.458, 587.811 917, 585.603 917 C 583.686 917, 581.840 916.550, 581.500 916 C 581.160 915.450, 581.584 915, 582.441 915 C 583.298 915, 584 914.325, 584 913.500 C 584 912.389, 582.833 912, 579.500 912 C 576.167 912, 575 911.611, 575 910.500 C 575 909.389, 573.833 909, 570.500 909 C 568.025 909, 566 908.550, 566 908 C 566 907.450, 568.475 907, 571.500 907 L 577 907 577 894 L 577 881 574.500 881 C 572.500 881, 572 880.500, 572 878.500 C 572 876.944, 571.433 876, 570.500 876 C 569.675 876, 569 875.325, 569 874.500 C 569 873.667, 568.111 873, 567 873 C 565.667 873, 565 872.333, 565 871 C 565 869.453, 564.333 869, 562.059 869 C 560.441 869, 558.840 868.550, 558.500 868 C 558.160 867.450, 558.359 867, 558.941 867 C 559.523 867, 560 866.325, 560 865.500 C 560 864.235, 557.710 864, 545.392 864 L 530.783 864 531.411 866.500 M 203 872.500 C 203 874.944, 202.548 876, 201.500 876 C 200.392 876, 200 877.159, 200 880.430 C 200 884.264, 199.697 884.904, 197.750 885.180 C 195.943 885.437, 195.439 886.238, 195.190 889.250 C 194.946 892.188, 194.459 893, 192.940 893 C 191.390 893, 191 893.703, 191 896.500 C 191 898.944, 190.548 900, 189.500 900 C 188.392 900, 188 901.159, 188 904.430 C 188 908.264, 187.697 908.904, 185.750 909.180 C 183.943 909.437, 183.439 910.238, 183.190 913.250 C 182.946 916.188, 182.459 917, 180.940 917 C 179.254 917, 179 917.724, 179 922.531 C 179 926.526, 178.583 928.223, 177.500 928.638 C 176.583 928.990, 176 930.506, 176 932.537 C 176 935.223, 175.568 935.922, 173.750 936.180 C 171.880 936.446, 171.448 937.217, 171.193 940.750 C 170.944 944.186, 170.513 945, 168.943 945 C 167.401 945, 167 945.700, 167 948.393 C 167 950.487, 166.426 952.006, 165.500 952.362 C 164.566 952.720, 164 954.244, 164 956.399 C 164 959.228, 163.588 959.919, 161.750 960.180 C 159.880 960.446, 159.448 961.217, 159.193 964.750 C 158.944 968.186, 158.513 969, 156.943 969 C 155.401 969, 155 969.700, 155 972.393 C 155 974.313, 154.416 976.010, 153.655 976.302 C 152.915 976.586, 152.268 978.271, 152.218 980.046 C 152.167 981.822, 151.683 983.717, 151.141 984.259 C 150.599 984.801, 150.377 985.819, 150.647 986.522 C 150.944 987.297, 150.421 987.741, 149.319 987.650 C 147.886 987.532, 147.373 988.454, 146.900 992 C 146.570 994.475, 146.233 995.712, 146.150 994.750 C 145.686 989.342, 143 993.393, 143 999.500 L 143 1006 158.500 1006 L 174 1006 174 1000 C 174 995.333, 174.333 994, 175.500 994 C 176.542 994, 177 992.952, 177 990.570 C 177 987.773, 177.416 987.080, 179.250 986.820 C 181.057 986.563, 181.561 985.762, 181.810 982.750 C 182.057 979.765, 182.530 979, 184.128 979 C 185.680 979, 185.991 978.547, 185.500 977 C 184.877 975.038, 185.320 975, 209.133 975 C 228.007 975, 233.133 975.267, 232.200 976.200 C 230.336 978.064, 230.770 979, 233.500 979 C 235.750 979, 236 979.400, 236 983 C 236 985.889, 236.417 987, 237.500 987 C 238.667 987, 239 988.333, 239 993 C 239 998.333, 239.222 999, 241 999 C 242.619 999, 243 999.667, 243 1002.500 L 243 1006 256.500 1006 L 270 1006 270 997.406 C 270 989.654, 269.804 988.762, 268 988.290 C 266.600 987.924, 266 986.926, 266 984.965 C 266 981.075, 265.067 979.037, 263.553 979.618 C 262.247 980.119, 261 976.093, 261 971.375 C 261 969.931, 260.412 969, 259.500 969 C 258.389 969, 258 967.833, 258 964.500 C 258 960.716, 257.692 960, 256.063 960 C 254.609 960, 254.049 959.190, 253.813 956.750 C 253.598 954.521, 252.793 953.190, 251.250 952.513 C 249.578 951.779, 249 950.687, 249 948.263 C 249 946.029, 248.527 945, 247.500 945 C 246.333 945, 246 943.667, 246 939 C 246 933.285, 243.318 929.687, 242.832 934.750 C 242.739 935.712, 242.402 933.800, 242.082 930.500 C 241.573 925.249, 241.219 924.460, 239.250 924.180 C 237.416 923.920, 237 923.227, 237 920.430 C 237 918.048, 236.542 917, 235.500 917 C 234.383 917, 234 915.820, 234 912.383 C 234 908.300, 233.775 907.826, 232.052 908.276 C 230.384 908.712, 230.061 908.190, 229.802 904.643 C 229.552 901.219, 229.109 900.445, 227.250 900.180 C 225.206 899.890, 225 899.319, 225 893.930 C 225 889.326, 224.665 888, 223.500 888 C 222.452 888, 222 886.944, 222 884.500 C 222 881.703, 221.610 881, 220.060 881 C 218.541 881, 218.054 880.188, 217.810 877.250 C 217.561 874.238, 217.057 873.437, 215.250 873.180 C 213.804 872.975, 213 872.171, 213 870.930 C 213 869.281, 212.273 869, 208 869 L 203 869 203 872.500 M 284 939.500 L 284 1006 296.500 1006 L 309 1006 309 984.500 C 309 970.833, 309.364 963, 310 963 C 310.550 963, 311 963.900, 311 965 C 311 966.313, 311.667 967, 312.940 967 C 314.459 967, 314.946 967.812, 315.190 970.750 C 315.436 973.731, 315.950 974.564, 317.695 974.812 C 319.067 975.008, 319.694 975.635, 319.367 976.486 C 319.080 977.234, 319.792 978.354, 320.950 978.973 C 322.109 979.593, 322.848 980.437, 322.594 980.848 C 322.340 981.259, 322.587 982.249, 323.142 983.048 C 323.910 984.151, 324.274 984.200, 324.659 983.250 C 325.765 980.525, 327 982.239, 327 986.500 C 327 989.833, 327.389 991, 328.500 991 C 331.102 991, 333.860 994.727, 334.186 998.686 C 334.439 1001.763, 334.935 1002.562, 336.750 1002.820 C 337.988 1002.995, 339 1003.783, 339 1004.570 C 339 1005.747, 341.657 1006, 354 1006 L 369 1006 369 1001 C 369 997.315, 368.621 996, 367.560 996 C 366.619 996, 366.013 994.703, 365.810 992.250 C 365.561 989.238, 365.057 988.437, 363.250 988.180 C 361.804 987.975, 361 987.171, 361 985.930 C 361 984.667, 360.309 984, 359 984 C 357.104 984, 356.422 982.104, 356.928 978.237 C 357.019 977.542, 356.398 976.706, 355.547 976.380 C 354.696 976.053, 354 974.934, 354 973.893 C 354 972.540, 353.286 972, 351.500 972 C 349.944 972, 349 971.433, 349 970.500 C 349 969.667, 348.111 969, 347 969 C 345.296 969, 345 968.333, 345 964.500 C 345 961.167, 344.611 960, 343.500 960 C 342.675 960, 342 959.325, 342 958.500 C 342 957.567, 341.056 957, 339.500 957 C 337.629 957, 337 956.473, 337 954.906 C 337 953.594, 336.160 952.570, 334.750 952.163 C 333.007 951.659, 333.514 951.399, 337 951.006 C 340.665 950.594, 341.500 950.129, 341.500 948.500 C 341.500 946.911, 342.270 946.436, 345.250 946.190 C 347.703 945.987, 349 945.381, 349 944.440 C 349 943.571, 349.991 943, 351.500 943 C 353.796 943, 354 942.633, 354 938.500 C 354 935.377, 354.415 934, 355.357 934 C 356.365 934, 356.894 931.386, 357.414 923.845 C 358.329 910.558, 357.201 893, 355.433 893 C 354.721 893, 353.995 891.987, 353.820 890.750 C 353.614 889.304, 352.696 888.386, 351.250 888.180 C 350.012 888.005, 349 887.217, 349 886.430 C 349 885.644, 348.100 885, 347 885 C 345.667 885, 345 884.333, 345 883 C 345 881.387, 344.333 881, 341.559 881 C 339.666 881, 337.840 880.550, 337.500 880 C 337.160 879.450, 337.584 879, 338.441 879 C 339.298 879, 340 878.325, 340 877.500 C 340 876.258, 338.123 876, 329.107 876 C 320.347 876, 318.101 875.706, 317.638 874.500 C 317.159 873.250, 314.303 873, 300.531 873 L 284 873 284 939.500 M 382.459 874.250 C 382.195 874.938, 382.097 898.675, 382.240 927 L 382.500 978.500 384.750 978.820 C 386.647 979.089, 387 979.755, 387 983.070 C 387 986.333, 387.339 987, 389 987 C 390.129 987, 391 987.667, 391 988.531 C 391 989.374, 391.675 990.322, 392.500 990.638 C 393.325 990.955, 394 992.039, 394 993.048 C 394 995.202, 396.203 996.892, 396.774 995.177 C 397.484 993.048, 399 993.949, 399 996.500 C 399 998.333, 399.533 999, 401 999 C 402.333 999, 403 999.667, 403 1001 C 403 1002.704, 403.667 1003, 407.500 1003 C 410.833 1003, 412 1003.389, 412 1004.500 C 412 1005.783, 414.892 1006, 432.031 1006 C 448.915 1006, 452.153 1005.764, 452.638 1004.500 C 453.018 1003.512, 454.582 1003, 457.224 1003 C 460.702 1003, 461.166 1002.743, 460.725 1001.056 C 460.328 999.538, 460.795 999.045, 462.858 998.806 C 464.672 998.596, 465.455 997.946, 465.358 996.731 C 465.268 995.606, 465.814 995.060, 466.858 995.231 C 467.906 995.403, 468.616 994.686, 468.820 993.250 C 469.181 990.706, 471 990.150, 471 992.583 C 471 993.454, 471.563 993.968, 472.250 993.725 C 472.972 993.469, 473.393 991.955, 473.246 990.141 C 473.073 987.998, 473.436 987, 474.389 987 C 476.005 987, 477 984.873, 477 981.418 C 477 979.667, 477.551 979, 479 979 C 480.975 979, 481 978.333, 481 925.971 L 481 872.942 467.750 873.221 L 454.500 873.500 454.240 921.250 C 454.014 962.774, 453.786 969, 452.490 969 C 451.464 969, 451 970.052, 451 972.383 C 451 974.926, 450.503 975.897, 449 976.290 C 447.803 976.603, 447 977.654, 447 978.906 C 447 980.682, 446.393 981, 443 981 C 440.111 981, 439 981.417, 439 982.500 C 439 983.690, 437.556 984, 432 984 C 426.973 984, 425.070 983.651, 425.250 982.764 C 425.403 982.009, 423.942 981.327, 421.500 981.014 C 418.319 980.605, 417.564 980.126, 417.812 978.672 C 418.008 977.523, 417.379 976.650, 416.117 976.320 C 414.743 975.961, 414.015 974.805, 413.806 972.648 C 413.574 970.260, 412.957 969.423, 411.250 969.180 L 409 968.861 409 920.930 L 409 873 395.969 873 C 386.465 873, 382.808 873.338, 382.459 874.250 M 90 888 C 90 888.733, 90.300 889.033, 90.667 888.667 C 91.033 888.300, 91.033 887.700, 90.667 887.333 C 90.300 886.967, 90 887.267, 90 888 M 545 888.941 C 545 890.333, 544.352 891, 543 891 C 541.303 891, 541 891.667, 541 895.399 L 541 899.799 545.500 900.157 C 549.964 900.512, 550 900.489, 550 897.339 C 550 895.593, 550.273 893.452, 550.607 892.582 C 551.042 891.448, 550.617 891, 549.107 891 C 547.939 891, 547 890.358, 547 889.559 C 547 888.766, 546.550 887.840, 546 887.500 C 545.450 887.160, 545 887.809, 545 888.941 M 88.250 890.785 C 83.772 891.490, 85.026 900, 89.608 900 C 92.958 900, 93.172 900.179, 92.589 902.500 L 91.962 905 99.481 905 C 103.827 905, 107 904.578, 107 904 C 107 903.443, 104.309 903, 100.927 903 L 94.855 903 95.119 897.306 C 95.403 891.161, 94.047 889.873, 88.250 890.785 M 309 915.500 L 309 933 313.441 933 C 317.655 933, 320.371 931.624, 317.829 930.776 C 314.796 929.765, 318.524 927.880, 323.078 928.121 C 325.760 928.264, 328.264 928.070, 328.643 927.690 C 329.023 927.311, 328.808 927, 328.167 927 C 327.525 927, 327 926.325, 327 925.500 C 327 924.667, 327.889 924, 329 924 C 330.560 924, 331 923.333, 331 920.969 C 331 919.197, 331.623 917.698, 332.500 917.362 C 336.131 915.968, 332.669 907, 328.500 907 C 327.675 907, 327 906.550, 327 906 C 327 905.450, 327.675 905, 328.500 905 C 329.325 905, 330 904.550, 330 904 C 330 903.450, 328.425 903, 326.500 903 C 324.575 903, 323 902.518, 323 901.929 C 323 899.411, 319.972 898, 314.571 898 L 309 898 309 915.500 M 548.527 902.807 C 547.160 904.173, 549.811 905, 555.559 905 C 562.629 905, 564.677 903.052, 557.750 902.917 C 555.413 902.871, 552.487 902.721, 551.250 902.584 C 550.012 902.446, 548.787 902.547, 548.527 902.807 M 130 919.500 C 130 919.775, 130.225 920, 130.500 920 C 130.775 920, 131 919.775, 131 919.500 C 131 919.225, 130.775 919, 130.500 919 C 130.225 919, 130 919.225, 130 919.500 M 182 919.500 C 182 919.775, 182.225 920, 182.500 920 C 182.775 920, 183 919.775, 183 919.500 C 183 919.225, 182.775 919, 182.500 919 C 182.225 919, 182 919.225, 182 919.500 M 210 924 C 210 924.733, 210.300 925.033, 210.667 924.667 C 211.033 924.300, 211.033 923.700, 210.667 923.333 C 210.300 922.967, 210 923.267, 210 924 M 589 923.500 C 589 923.775, 589.225 924, 589.500 924 C 589.775 924, 590 923.775, 590 923.500 C 590 923.225, 589.775 923, 589.500 923 C 589.225 923, 589 923.225, 589 923.500 M 208.250 926.768 C 206.426 927.069, 206 927.789, 206 930.570 C 206 933.562, 205.681 934, 203.500 934 C 201.204 934, 201 934.367, 201 938.500 C 201 941.833, 200.611 943, 199.500 943 C 198.421 943, 198 944.103, 198 946.930 C 198 950.211, 197.628 950.933, 195.750 951.294 C 194.512 951.533, 200.475 951.744, 209 951.764 C 217.525 951.784, 223.375 951.490, 222 951.111 C 219.993 950.557, 219.439 949.690, 219.190 946.711 C 218.947 943.812, 218.455 943, 216.940 943 C 215.307 943, 215 942.287, 215 938.500 C 215 935.167, 214.611 934, 213.500 934 C 212.457 934, 212 932.951, 212 930.559 C 212 926.726, 211.511 926.231, 208.250 926.768" stroke="none" fill="#fcfcfc" fill-rule="evenodd"/></svg>